<?xml version="1.0" encoding="utf-8"?>
<!-- Designed by Vexels.com - 2016 All Rights Reserved - https://vexels.com/terms-and-conditions/  -->

<svg version="1.0" id="Capa_1" xmlns="http://www.w3.org/2000/svg" xmlns:xlink="http://www.w3.org/1999/xlink" x="0px" y="0px"
	 width="1200px" height="1199.999px" viewBox="0 0 1200 1199.999" enable-background="new 0 0 1200 1199.999" xml:space="preserve">
<g>
	<g>
		<rect x="89.576" y="564.532" fill="#2D323F" width="1020.848" height="3.818"/>
	</g>
	<rect x="482.623" y="568.199" fill="#009481" width="60.216" height="294.019"/>
	<rect x="544.895" y="568.199" fill="#00B6AE" width="56.117" height="235.836"/>
	<rect x="604.099" y="568.199" fill="#38C0C5" width="60.231" height="175.575"/>
	<rect x="422.383" y="568.199" fill="#2D323F" width="58.195" height="116.383"/>
	<rect x="784.804" y="568.199" fill="#009481" width="60.206" height="174.566"/>
	<rect x="847.064" y="568.199" fill="#38C0C5" width="56.111" height="235.836"/>
	<rect x="906.256" y="568.199" fill="#2D323F" width="54.129" height="292.998"/>
	<rect x="724.534" y="568.199" fill="#FAA82E" width="56.174" height="56.129"/>
	<rect x="963.424" y="568.199" fill="#FAA82E" width="58.171" height="116.383"/>
	<rect x="724.534" y="337.781" fill="#2D323F" width="60.27" height="226.34"/>
	<rect x="666.36" y="382.588" fill="#38C0C5" width="56.117" height="181.533"/>
	<rect x="603.072" y="428.967" fill="#B5C6C7" width="60.249" height="135.154"/>
	<rect x="786.815" y="474.542" fill="#009481" width="58.195" height="89.579"/>
	<rect x="357.044" y="429.722" fill="#B5C6C7" width="60.237" height="134.399"/>
	<rect x="298.855" y="382.588" fill="#00B6AE" width="56.144" height="181.533"/>
	<rect x="241.703" y="338.578" fill="#415667" width="54.114" height="225.542"/>
	<rect x="421.362" y="520.914" fill="#FAA82E" width="56.132" height="43.207"/>
	<rect x="180.469" y="474.542" fill="#FAA82E" width="58.129" height="89.579"/>
</g>
</svg>
